PathFileType	4	(X/Y/Z)	markers
DataRate	CameraRate	NumFrames	NumMarkers	Units	OrigDataRate	OrigDataStartFrame	OrigNumFrames
200	200	8	39	mm	200	95	252
Frame#	Time	RASI			LASI			RPSI			LPSI			RTH1			RTH2			RTH3			RTH4			RLFC			RTB1			RTB2			RTB3			RTB4			RLMAL			RCAL			RTOE			RMT5			LTH1			LTH2			LTH3			LTH4			LLFC			LTB1			LTB2			LTB3			LTB4			LLMAL			LCAL			LTOE			LMT5			C7			T10			CLAV			RACR			LACR			RLEL			RFAradius			LLEL			LFAradius		
		X1	Y1	Z1	X2	Y2	Z2	X3	Y3	Z3	X4	Y4	Z4	X5	Y5	Z5	X6	Y6	Z6	X7	Y7	Z7	X8	Y8	Z8	X9	Y9	Z9	X10	Y10	Z10	X11	Y11	Z11	X12	Y12	Z12	X13	Y13	Z13	X14	Y14	Z14	X15	Y15	Z15	X16	Y16	Z16	X17	Y17	Z17	X18	Y18	Z18	X19	Y19	Z19	X20	Y20	Z20	X21	Y21	Z21	X22	Y22	Z22	X23	Y23	Z23	X24	Y24	Z24	X25	Y25	Z25	X26	Y26	Z26	X27	Y27	Z27	X28	Y28	Z28	X29	Y29	Z29	X30	Y30	Z30	X31	Y31	Z31	X32	Y32	Z32	X33	Y33	Z33	X34	Y34	Z34	X35	Y35	Z35	X36	Y36	Z36	X37	Y37	Z37	X38	Y38	Z38	X39	Y39	Z39
95	0.470000	1239.693583	977.759052	743.053037	1270.565857	949.316899	508.927870	1082.463767	1001.582096	653.431633	1094.703439	994.787255	559.422654	1284.585086	734.494118	795.351255	1337.324321	754.586117	763.326555	1371.252392	658.382542	750.922151	1333.139365	639.585307	777.025827	1376.219927	519.650711	741.940187	1335.637788	402.471824	763.106612	1380.583675	398.035334	739.026078	1364.010036	295.049373	712.478272	1309.658234	304.352141	745.908982	1262.229269	115.564695	697.900522	1198.885218	90.106499	639.831104	1421.731737	65.067060	611.619389	1385.977580	57.373246	710.132232	1250.449970	674.075058	461.660304	1285.948157	682.815683	496.287079	1293.933983	583.322132	522.400619	1248.472060	566.990686	478.847927	1207.517285	455.329256	489.512909	1121.834100	439.061335	460.432894	1123.484691	396.237460	483.411710	1021.808036	388.584709	491.422740	1014.833309	445.286894	460.216335	798.905262	432.949961	476.127409	755.986586	504.140679	539.825024	743.103361	278.698720	537.620676	735.490189	330.571805	443.165125	1171.146068	1493.934841	618.553829	1091.295094	1307.439306	584.201083	1269.697003	1412.183901	662.523536	1168.475147	1454.470718	789.918438	1258.547322	1476.115219	462.463291	959.587969	1192.100080	832.157871	1142.355653	1007.103270	837.358647	1220.245003	1142.934933	348.976978	1389.849869	1174.901741	533.524654
96	0.475000	1253.910822	974.406721	743.439606	1284.496798	945.379453	509.385538	1095.690838	997.204925	652.917253	1107.713038	989.905849	559.929553	1297.857073	731.387923	794.098493	1351.531473	752.095799	763.117853	1386.000623	656.752690	751.340029	1346.968338	636.337019	774.925302	1391.882812	517.412987	740.722178	1348.571220	402.960316	763.327972	1392.434486	395.138139	737.298284	1371.865851	292.888000	711.436581	1318.363676	305.044132	746.036887	1263.484649	115.221334	697.329085	1199.763953	90.436786	639.703898	1422.533509	63.436087	612.275263	1386.409065	57.230160	710.423467	1270.553467	671.223475	462.549189	1304.583259	680.958162	498.563539	1315.333811	582.082751	523.478650	1271.118393	563.911746	481.567003	1231.656994	452.859746	489.985308	1146.957235	436.787882	461.185710	1147.864004	394.200968	484.468178	1046.261443	387.697862	492.373537	1039.596048	444.420040	460.293756	824.735552	434.784623	476.444593	781.437385	505.982052	539.831946	767.746147	280.696548	536.287870	761.007696	332.533442	442.868763	1186.603338	1490.434184	620.112304	1106.060684	1304.806982	584.996948	1285.486319	1407.786440	662.564174	1185.115952	1449.595867	791.832001	1273.227804	1472.378958	462.815829	979.251995	1183.864311	834.668136	1165.016478	1002.668451	836.720396	1231.619767	1139.117442	349.133639	1402.632343	1166.567919	533.020822
97	0.480000	1267.393906	971.229699	743.993207	1298.609710	942.173763	509.119867	1109.682373	993.020076	651.960995	1120.463202	985.918592	560.034438	1311.367090	726.947819	793.017633	1366.039051	750.037771	764.488827	1400.135726	654.431036	751.045113	1361.087765	634.137420	774.294608	1406.584184	515.179249	740.462761	1359.649293	400.288628	761.324012	1403.637594	392.477990	736.121930	1379.266387	291.312496	711.532733	1326.354730	304.512064	746.036721	1264.250156	114.542452	696.767937	1200.540681	90.854338	639.470871	1422.842558	62.648124	612.403297	1386.538405	57.029242	710.716899	1291.145299	669.741061	462.812160	1324.091310	679.946788	500.415155	1336.839972	581.519399	523.525719	1292.641877	562.701895	479.899615	1256.615246	449.278668	491.266544	1172.228213	434.131858	462.075077	1172.620164	391.953436	485.798883	1070.894410	386.680282	493.987726	1065.005139	442.865308	461.201137	850.976254	435.365959	476.421436	806.879263	507.009729	539.709568	793.251222	281.808051	534.796085	787.184241	333.626693	442.335020	1202.088813	1487.030576	621.547070	1120.708171	1301.699493	585.824436	1301.257390	1403.739897	663.203344	1201.715133	1445.034763	793.336765	1288.028866	1469.105052	463.205625	999.460895	1175.027875	837.298893	1187.889059	998.243945	835.578504	1242.393170	1135.593661	349.339657	1415.010508	1157.862444	532.542580
98	0.485000	1281.279248	968.619612	744.145642	1312.516774	938.922373	509.359687	1123.350593	989.403287	650.771694	1134.504140	981.303458	559.554767	1324.782631	724.572279	792.957563	1378.556167	747.457056	763.722110	1413.762329	650.868143	750.619656	1374.457067	631.880117	775.157440	1419.587196	513.031140	740.224980	1370.845417	398.296164	761.429104	1413.601055	388.384048	735.177404	1385.087917	287.424134	710.214019	1333.867087	303.427357	746.119305	1264.847714	113.960493	696.422315	1201.168550	91.344115	639.170360	1422.935155	61.917711	612.323273	1386.547269	56.929062	710.665456	1311.131883	667.736098	463.297019	1343.334860	678.941959	501.460811	1358.010274	580.980560	524.503398	1314.979811	560.843732	480.501308	1281.920888	447.704318	491.278700	1197.639920	431.631158	463.067185	1197.643247	389.526201	486.771589	1095.709977	385.458746	495.333217	1090.894589	441.389797	462.542847	876.446608	436.013260	476.361113	832.543902	507.612087	539.203038	818.807216	282.708909	534.714901	813.944042	334.055350	442.415008	1217.504858	1484.200703	622.780932	1135.261576	1298.965301	587.062219	1316.796803	1399.656830	663.423949	1218.085514	1440.556414	794.822442	1303.148535	1465.113923	463.665346	1019.498008	1167.247541	839.713422	1211.294107	994.084209	834.692748	1252.757972	1132.724418	349.280913	1427.007188	1149.574633	531.555723
99	0.490000	1295.494193	966.274935	744.267746	1325.888423	936.279730	508.863082	1137.143605	986.640342	650.042118	1147.601730	977.951173	559.362260	1337.199082	721.877290	793.384869	1391.166786	743.826003	764.027338	1426.175823	648.345629	750.988247	1386.891528	628.028959	775.074822	1430.844577	510.132160	740.151597	1380.753148	395.139585	761.194435	1422.856093	383.684495	733.745188	1391.323061	283.976003	709.195612	1340.611967	301.658044	746.155866	1265.717349	113.051329	696.234161	1201.759909	91.740276	638.776462	1423.025529	61.415142	611.977125	1386.724496	56.952880	710.364788	1330.278750	666.298310	463.567621	1362.378365	678.206178	501.917351	1379.212506	581.819549	523.827361	1337.533580	559.239859	481.724251	1307.298206	445.513266	491.952680	1223.185244	429.823676	464.128223	1223.100232	388.442016	488.120471	1121.652999	384.911342	496.615874	1116.422631	440.653877	462.845147	902.453403	435.595508	476.886809	858.173974	507.650222	538.590167	844.924422	281.319413	532.823742	841.434994	334.116467	441.809982	1233.154100	1481.335484	623.754655	1149.557724	1296.374500	588.135287	1332.255987	1395.705091	663.724053	1234.220201	1436.929861	796.194850	1317.541376	1461.424653	463.936052	1039.976140	1159.585143	841.896507	1234.877436	990.849370	833.560779	1263.397873	1129.885789	349.329720	1438.810777	1141.228628	530.619971
100	0.495000	1309.867020	963.893514	744.267979	1338.145291	933.326069	508.019134	1151.338974	983.879204	650.230541	1161.291504	974.882932	559.749729	1349.735509	718.430852	793.277312	1404.259777	739.137893	764.016559	1438.552104	643.681845	749.360805	1399.278266	624.024188	775.236940	1441.595577	507.003494	740.202951	1389.300991	390.852274	760.572650	1431.397571	379.070170	733.388407	1397.034779	279.485564	707.866573	1346.312240	296.654141	743.300175	1266.689064	112.342482	695.214942	1201.856528	92.394409	639.398326	1423.199420	60.921933	611.693880	1387.045413	56.914798	710.100506	1349.652953	665.496937	463.498061	1381.286284	678.001948	502.001625	1402.141479	582.175741	525.560129	1359.960962	558.851846	481.568227	1332.801069	444.553154	493.320386	1248.857071	429.247306	465.224381	1248.699820	387.068217	489.467346	1146.679177	384.409885	497.162853	1142.140159	440.169324	463.026271	928.463969	434.525016	477.084600	883.668191	507.058544	538.075174	872.045004	281.476233	533.055435	869.327063	333.745947	441.261229	1248.628450	1478.824077	624.898587	1163.808454	1293.638785	589.506182	1347.807953	1392.222163	664.037289	1250.658136	1432.894928	797.711534	1332.089801	1457.851618	464.433278	1060.980953	1151.147641	844.295856	1259.083363	988.204276	831.813446	1274.031630	1127.588698	349.274531	1450.489974	1133.431673	528.910074
101	0.500000	1324.264650	961.089025	744.002813	1351.973134	931.225595	507.785165	1165.654710	981.445493	650.198993	1176.076491	973.492998	558.807092	1362.473365	714.442838	794.126501	1416.308616	735.750817	763.643249	1449.923215	639.757300	750.452145	1410.336485	620.953720	775.723550	1451.427439	502.947162	740.393388	1396.650043	385.108698	759.100659	1439.074153	372.620911	733.024049	1402.186396	275.113051	706.702080	1352.528125	293.840326	743.199573	1267.446890	112.238879	694.660756	1202.250249	93.336722	639.229066	1423.355815	60.725868	611.552092	1387.196833	56.827744	709.917059	1369.488902	664.377780	463.882251	1400.123451	678.590745	501.929582	1421.831762	581.979327	527.432955	1382.439228	558.610119	482.106769	1358.177407	443.487457	494.640785	1274.886888	428.428727	466.253540	1274.300324	386.332498	491.205280	1171.896920	382.864216	499.001790	1167.832320	439.351137	463.709948	954.901848	434.806180	476.737029	908.937234	505.595630	537.528960	899.689235	280.403930	532.741144	897.362841	332.609884	440.334974	1263.678296	1476.054269	625.680818	1177.972077	1291.895291	590.762072	1363.138750	1389.034711	664.216209	1267.068223	1429.684833	799.046053	1346.730811	1454.688823	464.974562	1081.930538	1143.872379	846.751028	1283.308184	985.397854	830.453402	1284.308592	1125.188923	349.214911	1461.742911	1125.597027	527.867340
102	0.505000	1339.102151	959.081071	743.377167	1365.938954	929.028990	507.327589	1179.593946	979.743282	650.560249	1190.146617	971.329293	559.268872	1374.777156	710.617034	793.495601	1428.603579	732.074257	763.227571	1462.148200	634.988624	750.429509	1422.255188	615.689822	775.184373	1460.604350	496.718368	740.469072	1404.349281	381.300187	759.974251	1445.406424	367.128683	732.090138	1407.434662	270.724152	706.098128	1358.046608	290.986263	742.796858	1268.328492	111.917491	694.032564	1203.794252	93.409924	637.979844	1423.566155	60.200541	611.383697	1387.376221	56.723500	709.787064	1389.259044	664.181165	463.547953	1418.802872	679.583624	501.891088	1442.941250	583.048693	527.844328	1403.620395	558.950209	481.584661	1384.094039	444.045630	495.431728	1301.113242	427.633906	467.215246	1300.503568	385.491437	491.780977	1198.436865	382.823510	498.994987	1194.281110	438.763486	464.952193	981.052431	433.514068	476.648032	934.279744	504.729168	537.090116	927.110534	278.952932	532.687892	925.507780	330.563029	440.042438	1278.763505	1473.431405	626.547905	1192.137231	1289.711322	592.347862	1378.590498	1385.259517	664.513909	1283.585368	1426.293323	800.383343	1360.798466	1451.845139	465.288141	1103.124917	1136.959838	849.108946	1307.425782	983.804805	828.898956	1294.079421	1123.778378	349.231210	1472.758651	1118.280351	526.348603
